<?xml version="1.0" encoding="UTF-8"?>
<svg xmlns="http://www.w3.org/2000/svg" version="1.1" viewBox="0 0 245.45 118.75">
  <defs>
    <style>
      .cls-1 {
        fill: #00203e;
      }
    </style>
  </defs>
  <!-- Generator: Adobe Illustrator 28.7.1, SVG Export Plug-In . SVG Version: 1.2.0 Build 142)  -->
  <g>
    <g id="Layer_1">
      <polygon class="cls-1" points="178.51 67.73 178.51 95.2 181.85 95.2 181.85 81.5 191.41 95.2 195.73 95.2 184.85 80.4 194.9 67.73 190.84 67.73 181.85 79.38 181.85 67.73 178.51 67.73 178.51 67.73"/>
      <polygon class="cls-1" points="47.72 70.47 54.29 70.47 54.29 95.2 57.25 95.2 57.25 70.47 63.81 70.47 63.81 67.73 47.72 67.73 47.72 70.47 47.72 70.47"/>
      <polygon class="cls-1" points="71.02 95.2 71.02 67.73 68.06 67.73 68.06 95.2 71.02 95.2 71.02 95.2"/>
      <polygon class="cls-1" points="89.42 95.2 89.42 92.7 78.56 92.7 78.56 82 89.42 82 89.42 79.5 78.56 79.5 78.56 70.24 89.42 70.24 89.42 67.73 75.6 67.73 75.6 95.2 89.42 95.2 89.42 95.2"/>
      <polygon class="cls-1" points="97.24 95.2 97.24 82 106.95 82 106.95 79.5 97.24 79.5 97.24 70.24 106.95 70.24 106.95 67.73 94.29 67.73 94.29 95.2 97.24 95.2 97.24 95.2"/>
      <path class="cls-1" d="M111.12,95.2h9.06c4.71,0,8.08-2.81,8.08-7.59,0-3.68-2.2-6.37-5.24-6.64v-.07c2.54-.72,3.98-2.88,3.98-6.34,0-4.17-3.19-6.83-7.66-6.83h-8.23v27.46h0ZM114.07,82.27h4.9c4.33,0,6.11,2.08,6.11,5.27,0,3.94-2.58,5.16-5.38,5.16h-5.62v-10.43h0ZM114.07,70.24h4.74c3.34,0,5.01,1.82,5.01,4.85s-1.89,4.67-5.08,4.67h-4.67v-9.52h0Z"/>
      <polygon class="cls-1" points="145.63 95.2 145.63 92.7 135.15 92.7 135.15 67.73 132.19 67.73 132.19 95.2 145.63 95.2 145.63 95.2"/>
      <polygon class="cls-1" points="151.98 95.2 151.98 67.73 149.02 67.73 149.02 95.2 151.98 95.2 151.98 95.2"/>
      <path class="cls-1" d="M174.58,77.82c-.04-5.62-3.15-10.55-9.18-10.55-6.34,0-9.52,6.03-9.52,14.19s3.18,14.18,9.37,14.18,9.33-4.33,9.33-9.94h-2.96c-.26,4.78-2.2,7.43-6.15,7.43s-6.41-4.32-6.41-11.68c0-7.74,2.2-11.68,6.41-11.68s6.11,4.4,6.22,8.04h2.88,0Z"/>
      <path class="cls-1" d="M131.75,35.04v1.24l.13,1.44-.87,2-1.25,1.94c-.26.28-.64.51-1.13.71l.14.47-.47.45-1.8,1.5-.79.5-.32.33c-.24.29-.69.52-1.34.67l-3.17,1.11-.83-.48-.29.23-1.41-.51-.72-.09-.55-.2-.25-.56-.9-.73-.51-.59-.43.04-.34-.96.2-.12-.27-.76-.25.02-.38-2-.07-.25c.31-.31.46-.56.44-.75l-.24-.97-.1-.57,1.01-.34.43-.92.29-1.06.76-.85.35-.59.52-.48,2.03-2.03.78-.45.12-.37.8-.42,1.94-.5c.26-.06.8-.32,1.6-.8l.52.16,1.75.3.73.26c.68-.08,1.01.05,1.11.21l.79,1.22,1.03.5.92,2.1.29.97h0Z"/>
      <path class="cls-1" d="M116.91,23.39l1.09-.06,2.58-.24,1.04.44.64-.18c.45-.09.81.03,1.08.35l1.62.12,1.87.48,1.61.1.51.26,1.46.36.47.32,1.13.12.82.9,1.72,1.03,1.19.98,1.38.58,1.6,1.47,1.05.75c.37.29.59.62.65.98.04.18,0,.42-.12.72-.18-.04-.27-.05-.27-.05l-1.1.57-.62-.13-1.01-.29-.57-.56-.57-1.59-.65-.83-.53-.31-.96-.82-1.41-.78-1.5-1.23-1.32-.29-3.07-1.12-1.75-.15-1.38-.2-.7.09-2.86-.04-1.74.6-.43.13h-.59s-.5-.15-.5-.15l-1.77.7h-.57l-1.55.75-.72.04-1.88,1.19-.86.22-1.46,1.23-.76.3-.83.65-.31.17h-.26l-.21.24-.73.09-.48.2-.84,1.66-1.25,1.27-.7.88c-.37-.13-.63-.19-.78-.16-.33.07-.5.23-.5.51l.1,1.03-.8,1.85c-.09.32-.09.88.02,1.67l.07.63c-.32.32-.62.53-.93.65l-.18-.12-1.22-.02c-.24.27-1.11-.1-1.34-.05-.2.04-.7-.18-1.49-.66l.24-.74.54-1.21.54-1.57.29-.6c.05-.32.26-.8.62-1.44l.29-.47.2-.04.48-.73,1.08-1.32.28-.42.76-.74.33.37.2-.04c-.02-.44.09-.81.32-1.12.52-.68,1.31-1.3,2.37-1.85l1.06-.51,1.55-1.05.46-.29.18.12.54.02.1-.3.35.21.07-.45.84-.32,1.8-1.05,1.72-.39.64-.43.94-.08,1.71-.48,1.23-.13.6-.22h.01Z"/>
      <path class="cls-1" d="M129.17,53.27l-1.09.08-2.57.29-1.05-.42-.63.19c-.45.09-.81-.02-1.08-.34l-1.62-.1-1.88-.45-1.61-.07-.52-.25-1.47-.34-.48-.31-1.13-.1-.83-.88-1.74-1-1.21-.96-1.39-.56-1.62-1.44-1.06-.73c-.37-.28-.59-.61-.67-.97-.04-.18,0-.42.1-.72.18.03.27.05.27.05l1.09-.59.62.13,1.01.28.58.55.59,1.58.67.81.53.3.97.8,1.42.76,1.52,1.2,1.32.26,3.09,1.08,1.75.12,1.38.17.7-.1h2.86s1.72-.64,1.72-.64l.43-.14.59-.02.5.15,1.75-.73.57-.02,1.54-.76.72-.05,1.86-1.22.86-.23,1.44-1.26.76-.32.81-.67.3-.17h.26l.21-.25.73-.1.47-.2.81-1.67,1.22-1.3.69-.9c.37.13.63.18.78.15.33-.07.49-.24.48-.51l-.12-1.03.76-1.87c.09-.33.07-.88-.04-1.67l-.08-.63c.31-.32.62-.54.92-.66l.18.12.97-.2.83.12c.23-.28.54.15.77.1.2-.04.7.17,1.5.64l-.23.75-.51,1.22-.51,1.58-.29.61c-.05.32-.25.8-.6,1.44l-.29.48-.2.04-.46.75-1.06,1.34-.27.42-.75.75-.34-.37-.2.04c.02.44-.08.81-.31,1.12-.51.69-1.28,1.33-2.33,1.89l-1.05.53-1.53,1.08-.45.3-.18-.12h-.54s-.09.29-.09.29l-.35-.21-.06.45-.83.33-1.78,1.08-1.72.42-.63.45-.94.1-1.7.51-1.23.16-.6.23h0v-.02Z"/>
      <path class="cls-1" d="M194.11,80.84h.59l.86,1.49h.62l-.87-1.5c.41-.07.79-.32.79-.94,0-.66-.4-.97-1.2-.97h-1.3v3.4h.52v-1.49h0ZM194.11,79.34h.72c.54,0,.75.22.75.51,0,.43-.25.56-.84.56h-.62v-1.08h0ZM194.74,83.56c1.61,0,2.99-1.25,2.99-2.96s-1.38-2.94-2.99-2.94-3,1.25-3,2.94,1.38,2.96,3,2.96h0ZM197.13,80.61c0,1.42-1.04,2.47-2.39,2.47s-2.4-1.05-2.4-2.47,1.04-2.45,2.4-2.45,2.39,1.06,2.39,2.45h0Z"/>
    </g>
  </g>
</svg>